<svg xmlns="http://www.w3.org/2000/svg" xmlns:xlink="http://www.w3.org/1999/xlink" viewBox="0 0 727.58 556.16"><defs><style>.cls-1,.cls-13,.cls-19,.cls-21,.cls-26,.cls-27,.cls-28,.cls-32,.cls-33,.cls-8{fill:none;}.cls-2{fill:#968eab;}.cls-3{fill:#0e254a;}.cls-4{fill:#f66438;}.cls-5{fill:#ffac3d;}.cls-6{fill:#323966;}.cls-7{fill:#fff;}.cls-19,.cls-26,.cls-27,.cls-8{stroke:#0e254a;}.cls-13,.cls-19,.cls-21,.cls-26,.cls-27,.cls-28,.cls-32,.cls-33,.cls-8{stroke-miterlimit:10;}.cls-8{stroke-width:5.23px;}.cls-9{fill:#5e1f3f;}.cls-10{fill:#e8eaec;}.cls-11{fill:#d04234;}.cls-12{fill:#fa7c50;}.cls-13,.cls-32,.cls-33{stroke:#968eab;}.cls-13,.cls-19,.cls-28{stroke-width:1.44px;}.cls-14{fill:#122f51;}.cls-15{fill:#65354d;}.cls-16{fill:#4e567a;}.cls-17{fill:#283154;}.cls-18{fill:#ffa280;}.cls-19{stroke-linecap:round;}.cls-20{clip-path:url(#clip-path);}.cls-21{stroke:#0c203a;stroke-width:31.64px;}.cls-22{fill:#613241;}.cls-23{fill:#ffc7be;}.cls-24{fill:#ffc7ac;}.cls-25{opacity:0.49;}.cls-26{stroke-width:1.3px;}.cls-27{stroke-width:1.35px;}.cls-28{stroke:#fa7c50;}.cls-29{fill:#afaac4;}.cls-30{fill:#827c91;}.cls-31{fill:#c4c4c9;}.cls-32{stroke-width:1.77px;}.cls-33{stroke-width:1.46px;}.cls-34{fill:#4257a4;}.cls-35{fill:#31477d;}.cls-36{fill:#ffd533;}.cls-37{fill:#a1cf3a;}.cls-38{fill:#709d2b;}.cls-39{fill:#4e8530;}.cls-40{fill:#53803a;}.cls-41{fill:#3d6a3a;}.cls-42{fill:#63b259;}.cls-43{fill:#a0533b;}.cls-44{fill:#4c79c1;}</style><clipPath id="clip-path"><path class="cls-1" d="M404.64,509.12c3.48-58.43,2.54-112.45-2-123.39-4.67-6.79-32.7-23.5-60.31-35.89l15.51-34.6c19.38,8.68,65.73,31.08,77.66,51.54,5,8.63,9.86,25.49,7.51,85.07-1.24,31.21-2.76,55.65-2.76,55.65Z"/></clipPath></defs><g id="Layer_2" data-name="Layer 2"><g id="Layer_1-2" data-name="Layer 1"><path class="cls-2" d="M700.34,555.9H9.9A9.92,9.92,0,0,1,0,546H0a9.92,9.92,0,0,1,9.9-9.89H700.34a9.92,9.92,0,0,1,9.89,9.89h0A9.92,9.92,0,0,1,700.34,555.9Z"/><path class="cls-3" d="M546.57,144.28h0a12.43,12.43,0,0,1,.95-18l.61-.53a13.6,13.6,0,0,1,18.71.91h0a12.43,12.43,0,0,1-1,18l-.61.54A13.61,13.61,0,0,1,546.57,144.28Z"/><path class="cls-4" d="M557,169.66l-12.89,11.22-36.62-39,12.9-11.23a28.14,28.14,0,0,1,31.7-3.41,27,27,0,0,1,6.87,5.3,25.63,25.63,0,0,1-2,37.17Z"/><path class="cls-5" d="M545.33,157.23l-12.89,11.23-25-26.63,12.9-11.23a28.14,28.14,0,0,1,31.7-3.41A25.57,25.57,0,0,1,554.31,139,25.94,25.94,0,0,1,545.33,157.23Z"/><path class="cls-6" d="M544.76,180.73c-3.89,3.48-15.39-2.33-25.68-13s-15.5-22.12-11.6-25.6c3.07-2.76,10.9.3,19.14,7a74.6,74.6,0,0,1,6.53,6,70.31,70.31,0,0,1,6.56,7.82C545.44,170.9,547.7,178.1,544.76,180.73Z"/><path class="cls-7" d="M539.71,163a10,10,0,0,1-12.15,2,9.26,9.26,0,0,1-3.7-12.84,9.47,9.47,0,0,1,2.76-3,74.6,74.6,0,0,1,6.53,6A70.31,70.31,0,0,1,539.71,163Z"/><polyline class="cls-8" points="611.7 270.57 645.13 162.67 577.44 117.57 563.23 129.65"/><ellipse class="cls-3" cx="576.55" cy="118.21" rx="8.32" ry="8.02"/><path class="cls-6" d="M580.71,118.21a4.17,4.17,0,1,1-4.16-4A4.08,4.08,0,0,1,580.71,118.21Z"/><path class="cls-5" d="M645.35,284.24H559.23a17.12,17.12,0,0,1,17.11-17.11h51.91a17.11,17.11,0,0,1,17.1,17.11Z"/><rect class="cls-3" x="576.99" y="262.86" width="15.54" height="4.71"/><ellipse class="cls-3" cx="644.47" cy="163.77" rx="11.65" ry="11.23"/><ellipse class="cls-6" cx="644.47" cy="163.77" rx="5.83" ry="5.61"/><path class="cls-9" d="M615.28,231.88h79a6,6,0,0,1,6,6v15.24a6,6,0,0,1-6,6h-79a0,0,0,0,1,0,0V231.88A0,0,0,0,1,615.28,231.88Z"/><path class="cls-9" d="M586.52,231.88h79a6,6,0,0,1,6,6v15.24a6,6,0,0,1-6,6h-79a0,0,0,0,1,0,0V231.88A0,0,0,0,1,586.52,231.88Z"/><path class="cls-10" d="M586.52,234.61H661.6a5.18,5.18,0,0,1,5.18,5.18v10.49a5.18,5.18,0,0,1-5.18,5.18H586.52a0,0,0,0,1,0,0V234.61A0,0,0,0,1,586.52,234.61Z"/><rect class="cls-7" x="677.49" y="242.67" width="17.98" height="1.98"/><rect class="cls-7" x="677.49" y="246.9" width="17.98" height="1.98"/><path class="cls-9" d="M628.1,183.52h79a6,6,0,0,1,6,6V204.8a6,6,0,0,1-6,6h-79a0,0,0,0,1,0,0V183.52A0,0,0,0,1,628.1,183.52Z"/><path class="cls-9" d="M599.33,183.52h79a6,6,0,0,1,6,6V204.8a6,6,0,0,1-6,6h-79a0,0,0,0,1,0,0V183.52A0,0,0,0,1,599.33,183.52Z"/><path class="cls-10" d="M599.33,186.25h76.08a5.18,5.18,0,0,1,5.18,5.18v11.49a5.18,5.18,0,0,1-5.18,5.18H599.33a0,0,0,0,1,0,0V186.25A0,0,0,0,1,599.33,186.25Z"/><rect class="cls-10" x="688.16" y="192.15" width="21.99" height="9.71"/><rect class="cls-3" x="690.3" y="194.31" width="17.98" height="1.98"/><rect class="cls-3" x="690.3" y="197.55" width="17.98" height="1.98"/><path class="cls-3" d="M621,257.77h79a6,6,0,0,1,6,6v15.24a6,6,0,0,1-6,6H621a0,0,0,0,1,0,0V257.77A0,0,0,0,1,621,257.77Z"/><path class="cls-3" d="M592.27,257.77h79a6,6,0,0,1,6,6v15.24a6,6,0,0,1-6,6h-79a0,0,0,0,1,0,0V257.77A0,0,0,0,1,592.27,257.77Z"/><path class="cls-10" d="M592.27,261.49h75.08a5.18,5.18,0,0,1,5.18,5.18v9.49a5.18,5.18,0,0,1-5.18,5.18H592.27a0,0,0,0,1,0,0V261.49A0,0,0,0,1,592.27,261.49Z"/><rect class="cls-10" x="681.1" y="266.4" width="21.99" height="9.71"/><rect class="cls-3" x="683.24" y="268.56" width="17.98" height="1.98"/><rect class="cls-3" x="683.24" y="271.79" width="17.98" height="1.98"/><path class="cls-11" d="M605,210.65V231.9h90.77a10.63,10.63,0,1,0,0-21.25Z"/><path class="cls-12" d="M594.43,210.65V231.9h76.38a10.63,10.63,0,1,0,0-21.25Z"/><path class="cls-10" d="M594.43,214.29v13.63H668a6.82,6.82,0,0,0,0-13.63Z"/><line class="cls-13" x1="599.32" y1="189.45" x2="677.96" y2="189.45"/><line class="cls-13" x1="599.32" y1="194.01" x2="677.96" y2="194.01"/><line class="cls-13" x1="599.32" y1="198.56" x2="677.96" y2="198.56"/><line class="cls-13" x1="599.32" y1="203.12" x2="677.96" y2="203.12"/><line class="cls-13" x1="586.46" y1="238.59" x2="665.56" y2="238.59"/><line class="cls-13" x1="586.46" y1="243.15" x2="665.56" y2="243.15"/><line class="cls-13" x1="586.46" y1="247.7" x2="665.56" y2="247.7"/><line class="cls-13" x1="586.46" y1="252.26" x2="665.56" y2="252.26"/><line class="cls-13" x1="592.45" y1="264.72" x2="671.55" y2="264.72"/><line class="cls-13" x1="592.45" y1="269.28" x2="671.55" y2="269.28"/><line class="cls-13" x1="592.45" y1="272.83" x2="671.55" y2="272.83"/><line class="cls-13" x1="592.45" y1="277.38" x2="671.55" y2="277.38"/><rect class="cls-14" x="147.31" y="306.87" width="23.01" height="249.3"/><path class="cls-15" d="M387,379.26,249.67,389.57,211.56,196.12l92.25-.32a54.55,54.55,0,0,1,53.56,43.26Z"/><path class="cls-11" d="M221.74,380.52,198.89,211.25a13.88,13.88,0,0,1,11.86-15.57h0a13.88,13.88,0,0,1,15.56,11.86l22.85,169.28a13.88,13.88,0,0,1-11.86,15.56h0A13.87,13.87,0,0,1,221.74,380.52Z"/><rect class="cls-16" x="299.98" y="403.71" width="16.09" height="94.92"/><path class="cls-3" d="M316.07,409.23v21.45L300,424.46V409.93C304,409.74,311.76,409.42,316.07,409.23Z"/><path class="cls-17" d="M345.31,411.38H273.4a7.22,7.22,0,0,1-7.19-7.19h0A7.21,7.21,0,0,1,273.4,397h71.91a7.2,7.2,0,0,1,7.19,7.19h0A7.21,7.21,0,0,1,345.31,411.38Z"/><path class="cls-15" d="M380.51,402.75H297.85a18,18,0,0,1-18-18h0a18,18,0,0,1,18-18h82.66a18,18,0,0,1,18,18h0A18,18,0,0,1,380.51,402.75Z"/><rect class="cls-11" x="223.78" y="367.27" width="102.08" height="35.96" rx="17.98"/><path class="cls-3" d="M376.23,530.28H366.17a21.85,21.85,0,0,0-21.82-21.82H271a21.84,21.84,0,0,0-21.81,21.82H239.12A31.92,31.92,0,0,1,271,498.39h73.35A31.92,31.92,0,0,1,376.23,530.28Z"/><rect class="cls-3" x="296.17" y="483.29" width="23.49" height="15.34"/><circle class="cls-3" cx="243.77" cy="540.01" r="8.36" transform="translate(-337.8 653.19) rotate(-76.72)"/><path class="cls-6" d="M243.95,525.73h.88a11,11,0,0,1,11,11v2.54a0,0,0,0,1,0,0H232.95a0,0,0,0,1,0,0v-2.54A11,11,0,0,1,243.95,525.73Z"/><circle class="cls-3" cx="371.67" cy="540.01" r="8.36" transform="translate(-239.28 777.67) rotate(-76.72)"/><path class="cls-6" d="M371.85,525.73h.88a11,11,0,0,1,11,11v2.54a0,0,0,0,1,0,0H360.85a0,0,0,0,1,0,0v-2.54A11,11,0,0,1,371.85,525.73Z"/><rect class="cls-3" x="301.73" y="501.51" width="13.33" height="30.2"/><circle class="cls-3" cx="308.67" cy="540.01" r="8.36" transform="translate(-287.81 716.36) rotate(-76.72)"/><path class="cls-6" d="M308.85,525.73h.88a11,11,0,0,1,11,11v2.54a0,0,0,0,1,0,0H297.85a0,0,0,0,1,0,0v-2.54A11,11,0,0,1,308.85,525.73Z"/><path class="cls-18" d="M478.07,248.89l22.82,6.54a3.16,3.16,0,0,0,3.89-2.16h0a3.16,3.16,0,0,0-2.16-3.9l-22.81-6.54a3.16,3.16,0,0,0-3.9,2.16h0A3.16,3.16,0,0,0,478.07,248.89Z"/><path class="cls-18" d="M484.36,256.44l18.32,5.26a3.17,3.17,0,0,0,3.9-2.17h0a3.16,3.16,0,0,0-2.16-3.89l-18.32-5.25a3.16,3.16,0,0,0-3.9,2.16h0A3.15,3.15,0,0,0,484.36,256.44Z"/><path class="cls-18" d="M479.16,260.7l21.68,6.21a3.15,3.15,0,0,0,3.89-2.16h0a3.16,3.16,0,0,0-2.16-3.9l-21.68-6.21A3.15,3.15,0,0,0,477,256.8h0A3.16,3.16,0,0,0,479.16,260.7Z"/><path class="cls-18" d="M461.07,262.3l23.28,4.64a3.15,3.15,0,0,0,3.7-2.47h0a3.16,3.16,0,0,0-2.47-3.71l-23.27-4.64a3.17,3.17,0,0,0-3.71,2.48h0A3.15,3.15,0,0,0,461.07,262.3Z"/><path class="cls-18" d="M495.43,254.54c-.24-.08-2.83-1.33-5.63-2.7a33.82,33.82,0,0,0-15.53-3.43l-10.3.2s-2,17.08-1.26,16.9,22.65,3.77,22.65,3.77Z"/><rect class="cls-10" x="457.74" y="246.93" width="9.83" height="26.33"/><path class="cls-2" d="M407.84,530.35l59.86-2.25a6.48,6.48,0,0,0,6.22-6.71h0a6.48,6.48,0,0,0-4.57-5.94l-30-9.22-32.34,2Z"/><path class="cls-3" d="M469,529.71l-60.58,2.73-.2-4.34,64.92-2.92h0A4.33,4.33,0,0,1,469,529.71Z"/><line class="cls-19" x1="439.01" y1="515.02" x2="445.7" y2="507.19"/><line class="cls-19" x1="444.26" y1="516.96" x2="450.95" y2="509.13"/><line class="cls-19" x1="449.32" y1="519.64" x2="456.85" y2="510.77"/><g class="cls-20"><path class="cls-3" d="M404.64,509.12c3.48-58.43,2.54-112.45-2-123.39-4.67-6.79-32.7-23.5-60.31-35.89l15.51-34.6c19.38,8.68,65.73,31.08,77.66,51.54,5,8.63,9.86,25.49,7.51,85.07-1.24,31.21-2.76,55.65-2.76,55.65Z"/><path class="cls-3" d="M337.16,330.36s70.48,25.41,78.63,45.54,5.27,132.8,5.27,132.8l-23.49,1L319.42,326.52Z"/></g><path class="cls-21" d="M350.31,164.73l30.15,77.06A32.16,32.16,0,0,0,410,260.45l51.85-.52"/><rect class="cls-18" x="303.47" y="84.56" width="31.05" height="57.56" rx="11.95"/><path class="cls-22" d="M383.27,54.63c0,.76-.12,1.52-.21,2.27A51,51,0,0,1,328.78,102c-12.72-.9-23.72,4.06-32.08-4.29a50.48,50.48,0,0,1-7.12-8.86c-.8-1.27-1.55-2.55-2.23-3.87-4.17-8-6.58-27.77-5.9-37.47A51.06,51.06,0,0,1,333.62,0c.77,0,1.55.06,2.32.11A51,51,0,0,1,376,24.5h0a51.53,51.53,0,0,1,5.6,13A50.81,50.81,0,0,1,383.27,54.63Z"/><path class="cls-23" d="M316,64.57a8.37,8.37,0,0,1-.73,3,9.58,9.58,0,0,1-2.16,3.15,8.89,8.89,0,0,1-6.31,2.41l-5.2-.27-4-.2.59-11.82h0l.11-2.19.08-1.7.09-1.55V55h0l9.16.47a8.81,8.81,0,0,1,5.87,2.66,9,9,0,0,1,2,3.34A7.94,7.94,0,0,1,316,64.57Z"/><path class="cls-24" d="M379.07,59.55l-1,19.11L378,81.52a38.93,38.93,0,0,1-.68,5.56,40.15,40.15,0,0,1-34.47,32c-.52.08-1.05.13-1.57.16a38.62,38.62,0,0,1-5.6.11,36.91,36.91,0,0,1-5.39-.65,39.5,39.5,0,0,1-9.81-3.16h0a40.15,40.15,0,0,1-23-34.84c0-.46,0-.9,0-1.36a14.82,14.82,0,0,1,0-1.63v-.29l.05-1.29.19-3.41L298.2,61v-.13l.12-2.17.08-1.7.09-1.55,0-.4A31.91,31.91,0,0,1,300,47.19a43.9,43.9,0,0,1,1.93-5.1,6.5,6.5,0,0,1,.32-.75,35.49,35.49,0,0,1,2.07-4,0,0,0,0,1,0,0A40.3,40.3,0,0,1,315.74,25.1c.92-.64,1.87-1.26,2.84-1.84a40.93,40.93,0,0,1,50.94,7.57,38.75,38.75,0,0,1,8,14.12,29.12,29.12,0,0,1,1.38,6.2A47.73,47.73,0,0,1,379.07,59.55Z"/><path class="cls-23" d="M302.21,61l-.61,11.86-.41,8L298,80.73a5.05,5.05,0,0,1-.68-.07A10.33,10.33,0,0,1,288.42,70a9.52,9.52,0,0,1,3.32-6.74,9.81,9.81,0,0,1,6.47-2.38h0a3.75,3.75,0,0,1,.82,0Z"/><path class="cls-3" d="M364.61,75.55h0a1.81,1.81,0,0,1-1.8-1.8V68a1.81,1.81,0,0,1,1.8-1.8h0a1.81,1.81,0,0,1,1.8,1.8v5.75A1.81,1.81,0,0,1,364.61,75.55Z"/><path class="cls-3" d="M338.24,75.55h0a1.81,1.81,0,0,1-1.8-1.8V68a1.81,1.81,0,0,1,1.8-1.8h0A1.81,1.81,0,0,1,340,68v5.75A1.81,1.81,0,0,1,338.24,75.55Z"/><path class="cls-18" d="M334.53,119.18a26.74,26.74,0,0,1-14.1-3.67h0a40.15,40.15,0,0,1-23-34.84A10.33,10.33,0,0,1,288.42,70a9.52,9.52,0,0,1,3.32-6.74,9.81,9.81,0,0,1,6.47-2.38v0l.12-2.17.08-1.7.09-1.55V55h0A31.91,31.91,0,0,1,300,47.19c5.44-3,11-3.61,14.13,3.2,0,0-.32,3.07-.59,7.76-.22,3.51-.42,7.91-.45,12.59-.09,9.61.49,20.35,3,26.86C321.34,111.51,334.53,119.18,334.53,119.18Z"/><path class="cls-22" d="M380.65,31.84H315.81a7.77,7.77,0,0,1-7.74-7.74h0a7.77,7.77,0,0,1,7.74-7.74h64.84a7.76,7.76,0,0,1,7.74,7.74h0A7.76,7.76,0,0,1,380.65,31.84Z"/><path class="cls-22" d="M394.76,38.12a10.2,10.2,0,0,1-10,12H325.63a15.35,15.35,0,0,0-15.35,15.35v9.56a5.79,5.79,0,0,1-5.77,5.77h-1.37a5.76,5.76,0,0,1-5.76-5.77V46.26a4.68,4.68,0,0,1,0-.66A10.07,10.07,0,0,1,295.69,40a10.21,10.21,0,0,1,10.19-10.2h78.45A10.48,10.48,0,0,1,394.76,38.12Z"/><path class="cls-15" d="M374.68,60.93H362a2.29,2.29,0,0,1-2.28-2.28h0A2.29,2.29,0,0,1,362,56.37h12.71A2.28,2.28,0,0,1,377,58.65h0A2.28,2.28,0,0,1,374.68,60.93Z"/><path class="cls-15" d="M343.75,60.93h-12.7a2.29,2.29,0,0,1-2.28-2.28h0a2.29,2.29,0,0,1,2.28-2.28h12.7A2.29,2.29,0,0,1,346,58.65h0A2.29,2.29,0,0,1,343.75,60.93Z"/><g class="cls-25"><polygon class="cls-7" points="339.32 65.48 345.31 77.23 349.87 76.75 343.63 65.48 339.32 65.48"/><polygon class="cls-7" points="367.37 65.48 373.36 77.23 377.91 76.75 371.68 65.48 367.37 65.48"/></g><rect class="cls-26" x="358.59" y="64.94" width="19.02" height="12.94" rx="2.74"/><rect class="cls-27" x="330.72" y="64.94" width="20.56" height="12.94" rx="2.85"/><path class="cls-28" d="M358.87,93.34a11.72,11.72,0,0,1-9.06,3.31,12.12,12.12,0,0,1-7.66-3.11"/><path class="cls-18" d="M359.78,83c0,.06-.25,0-.25,0-.06,2-1.83,3.66-6.21,3.54l-.52-16.1C357.48,76.33,359.46,79.63,359.78,83Z"/><line class="cls-27" x1="351.54" y1="71.48" x2="359.22" y2="71.72"/><path class="cls-3" d="M369.68,180.25V325.57L264,337.11l-5.19-156.86A47.44,47.44,0,0,1,298,133.55a48.47,48.47,0,0,1,8.24-.71h16A47.41,47.41,0,0,1,369.68,180.25Z"/><path class="cls-3" d="M361.29,338.32a27.05,27.05,0,0,1-27.05,27H288.77a25.81,25.81,0,0,1-4-.3,26.45,26.45,0,0,1-9.3-3.18,16.73,16.73,0,0,1-1.46-.89,27,27,0,0,1-12.31-22.67l.83-14.42,97.93-.85Z"/><rect class="cls-10" x="304.46" y="129.96" width="36.54" height="170.4"/><polygon class="cls-3" points="323.95 152.33 313.29 137.16 323.11 131.29 334.61 137.16 323.95 152.33"/><polygon class="cls-3" points="327.72 304.5 315.82 288.44 320.6 145.19 327.98 145.9 338.79 287.85 327.72 304.5"/><polygon class="cls-7" points="341.63 144 324.49 132.27 304.46 144 303.04 129.56 341.63 129.56 341.63 144"/><path class="cls-2" d="M333.06,520l56,21.23a6.48,6.48,0,0,0,8.34-3.76h0a6.44,6.44,0,0,0-1.89-7.24l-24-20.17-30.58-10.75Z"/><path class="cls-3" d="M389.6,543.25l-56.86-21.07,1.51-4.07,60.94,22.57h0A4.35,4.35,0,0,1,389.6,543.25Z"/><path class="cls-14" d="M379.2,449.87c-.79,30.94-3.53,59.23-3.64,60.41l-20.08-2-17.66-1.71c5.12-52.74,4.89-105.8-.45-117.11-6.18-5.83-30.21-16.44-52.56-24.44-3.15-1.12-6.28-2.19-9.3-3.18-.53-.19-1.06-.36-1.59-.53l.13-.36s18.53-32.55,57.56-21.35c8.23,2.36,15,10.18,23.48,15.9a59.86,59.86,0,0,1,10.89,9C373.78,373.1,380.76,389.37,379.2,449.87Z"/><line class="cls-19" x1="365.81" y1="516.13" x2="375.16" y2="511.82"/><line class="cls-19" x1="369.76" y1="520.09" x2="379.11" y2="515.77"/><line class="cls-19" x1="373.24" y1="524.64" x2="383.79" y2="519.73"/><path class="cls-14" d="M299.76,198.53l-40.91-16.77v-1.51A47.44,47.44,0,0,1,298,133.55l.32.25Z"/><path class="cls-3" d="M355.48,508.32l-17.66-1.71c5.12-52.74,4.89-105.8-.45-117.11-6.18-5.83-30.21-16.44-52.56-24.44a26.45,26.45,0,0,1-9.3-3.18c-.53-.19-1.06-.36-1.59-.53l.13-.36a27,27,0,0,1-12.31-22.67l.83-14.42L278.19,326c-.37,1.12-2.49,12.14,1.37,18.76a9.33,9.33,0,0,0,4.87,4.25c6.11,2.33,29.37,8,47.88,16.31,12,5.37,22,11.82,24,19.17C361.21,401.79,356.27,494.21,355.48,508.32Z"/><path class="cls-29" d="M561.77,283H467.61A8.42,8.42,0,0,1,460,271L492.83,201a17.41,17.41,0,0,1,15.75-10h86.69a6.13,6.13,0,0,1,5.55,8.74Z"/><path class="cls-29" d="M468,283.26H400.82a5,5,0,0,1-4.93-4.93h0a5,5,0,0,1,4.93-4.93H468a5,5,0,0,1,4.93,4.93h0A5,5,0,0,1,468,283.26Z"/><rect class="cls-3" x="434.24" y="276.67" width="9.59" height="2.88"/><rect class="cls-3" x="424.42" y="276.67" width="6.95" height="2.88"/><path class="cls-30" d="M560.35,283H466a4.63,4.63,0,0,1-4.19-6.59L497.15,201a17.39,17.39,0,0,1,15.75-10h86.68a6.14,6.14,0,0,1,5.56,8.74l-36.62,78.12A9,9,0,0,1,560.35,283Z"/><path class="cls-7" d="M539.73,242.37c-2.24,5.24-6.42,8.47-9.34,7.22s-3.48-6.51-1.24-11.74,6.42-8.47,9.34-7.22S542,237.14,539.73,242.37Z"/><path class="cls-18" d="M392.52,261.28,416,257.53a3.16,3.16,0,0,0,2.61-3.61h0a3.15,3.15,0,0,0-3.61-2.61l-23.43,3.74a3.17,3.17,0,0,0-2.62,3.61h0A3.17,3.17,0,0,0,392.52,261.28Z"/><path class="cls-18" d="M400,267.61l18.81-3a3.15,3.15,0,0,0,2.61-3.61h0a3.15,3.15,0,0,0-3.6-2.61l-18.82,3a3.15,3.15,0,0,0-2.61,3.61h0A3.16,3.16,0,0,0,400,267.61Z"/><path class="cls-18" d="M395.64,275.83l22.27-3.56a3.17,3.17,0,0,0,2.61-3.61h0a3.17,3.17,0,0,0-3.61-2.62l-22.27,3.56a3.16,3.16,0,0,0-2.61,3.61h0A3.16,3.16,0,0,0,395.64,275.83Z"/><path class="cls-18" d="M402.64,255.22c-.25,0-3.13,0-6.24-.07a34,34,0,0,0-15.53,3.48l-9.24,4.55s5.29,15.71,6,15.84c17.82,3.22,23.93-4.87,23.93-4.87Z"/><rect class="cls-10" x="380.93" y="255.15" width="7.91" height="25.71"/><path class="cls-14" d="M329.1,283.65a48,48,0,0,1-43.54-27.84l-.39-.84-24.41-74.54,30.07-9.84,23.79,72.64A16.34,16.34,0,0,0,329.26,252l51.85-.51.32,31.64-51.86.51Z"/><rect class="cls-2" x="311.87" y="315.02" width="26.37" height="9.08"/><rect class="cls-30" x="259.5" y="306.87" width="23.01" height="249.3"/><rect class="cls-30" x="553.86" y="306.86" width="23.01" height="249.3"/><rect class="cls-30" x="666.04" y="306.86" width="23.01" height="249.3"/><polygon class="cls-6" points="553.86 306.87 576.87 306.87 576.87 389.1 553.86 400.51 553.86 306.87"/><polygon class="cls-6" points="689.05 306.87 689.05 333.43 666.04 344.85 666.04 306.87 689.05 306.87"/><polygon class="cls-6" points="282.7 306.37 282.7 333.28 259.39 344.85 259.39 306.37 282.7 306.37"/><path class="cls-6" d="M125.7,283.22H642.25a0,0,0,0,1,0,0v20.95a10.14,10.14,0,0,1-10.14,10.14H135.84a10.14,10.14,0,0,1-10.14-10.14V283.22a0,0,0,0,1,0,0Z" transform="translate(767.95 597.53) rotate(180)"/><rect class="cls-31" x="201.29" y="260.2" width="112.81" height="24"/><rect class="cls-10" x="262.23" y="259.93" width="52.17" height="24.55"/><line class="cls-32" x1="201.39" y1="264.62" x2="314.3" y2="264.62"/><line class="cls-32" x1="201.39" y1="269.44" x2="314.3" y2="269.44"/><line class="cls-32" x1="201.39" y1="274.27" x2="314.3" y2="274.27"/><line class="cls-32" x1="201.39" y1="279.1" x2="314.3" y2="279.1"/><rect class="cls-15" x="14.44" y="353.21" width="158.39" height="202.92"/><rect class="cls-15" x="73.3" y="353.21" width="168.39" height="202.92"/><rect class="cls-12" x="84.07" y="368.07" width="147.66" height="53.69"/><rect class="cls-12" x="84.07" y="431.08" width="147.66" height="53.69"/><rect class="cls-12" x="84.07" y="494.08" width="147.66" height="53.69"/><path class="cls-7" d="M183.75,397.79H146.83a2.88,2.88,0,0,1-2.87-2.87h0a2.88,2.88,0,0,1,2.87-2.88h36.92a2.89,2.89,0,0,1,2.88,2.88h0A2.89,2.89,0,0,1,183.75,397.79Z"/><path class="cls-7" d="M185.19,460.36H148.27a2.89,2.89,0,0,1-2.87-2.88h0a2.89,2.89,0,0,1,2.87-2.88h36.92a2.89,2.89,0,0,1,2.87,2.88h0A2.89,2.89,0,0,1,185.19,460.36Z"/><path class="cls-7" d="M185.19,522.92H148.27A2.88,2.88,0,0,1,145.4,520h0a2.88,2.88,0,0,1,2.87-2.87h36.92a2.88,2.88,0,0,1,2.87,2.87h0A2.88,2.88,0,0,1,185.19,522.92Z"/><path class="cls-5" d="M375.28,250v35.29H345.79V250a2.83,2.83,0,0,1,2.82-2.82h23.85A2.83,2.83,0,0,1,375.28,250Z"/><path class="cls-4" d="M346.16,279.26c-.39-.23-9.44-5.53-10.25-14.81a8.49,8.49,0,0,1,2.21-6.95c3.24-3.35,8.63-3.16,9.23-3.12l-.24,4.3c-1.09-.05-4.31.18-5.9,1.83a4.3,4.3,0,0,0-1,3.56c.62,7.07,8,11.4,8.09,11.44Z"/><path class="cls-11" d="M368,269.65h-8.44a5.3,5.3,0,0,1-5.31-5.3h0a5.3,5.3,0,0,1,5.31-5.3H368a5.3,5.3,0,0,1,5.31,5.3h0A5.3,5.3,0,0,1,368,269.65Z"/><path class="cls-4" d="M361.5,285.29H345.79V250a2.83,2.83,0,0,1,2.82-2.82h.95c0,1.84.55,15.92,4.5,26.06C357.5,282.07,360.56,284.68,361.5,285.29Z"/><line class="cls-13" x1="592.45" y1="264.72" x2="671.55" y2="264.72"/><line class="cls-13" x1="592.45" y1="269.28" x2="671.55" y2="269.28"/><line class="cls-13" x1="592.45" y1="272.83" x2="671.55" y2="272.83"/><line class="cls-13" x1="592.45" y1="277.38" x2="671.55" y2="277.38"/><polygon class="cls-7" points="251.11 260.61 270.04 219.85 288.74 260.13 251.11 260.61"/><rect class="cls-7" x="236.01" y="220.09" width="34.04" height="39.31"/><polygon class="cls-6" points="218.51 260.61 235.77 220.33 254.46 260.61 218.51 260.61"/><rect class="cls-2" x="249.91" y="225.13" width="17.02" height="1.68"/><rect class="cls-2" x="251.35" y="228.48" width="17.02" height="1.68"/><path class="cls-2" d="M260.78,255.64l-9.13-21.51,19.86.08,9.8,20.85Zm-7-20.11,7.9,18.62,17.34-.42-8.42-18.07Z"/><line class="cls-33" x1="254.88" y1="238.61" x2="273.07" y2="238.61"/><line class="cls-33" x1="256.46" y1="242.54" x2="274.64" y2="242.54"/><line class="cls-33" x1="257.76" y1="246.46" x2="275.94" y2="246.46"/><line class="cls-33" x1="259.89" y1="250.39" x2="278.07" y2="250.39"/><line class="cls-33" x1="267.65" y1="235.29" x2="276.1" y2="254.07"/><line class="cls-33" x1="262.61" y1="235.38" x2="271.06" y2="254.16"/><line class="cls-33" x1="257.67" y1="235.02" x2="266.03" y2="254.52"/><rect class="cls-34" x="673.79" y="190.52" width="4.79" height="66.16" transform="translate(49.32 -114.42) rotate(10.04)"/><rect class="cls-34" x="676.92" y="189.25" width="7.43" height="19.9" transform="translate(45.13 -115.57) rotate(10.04)"/><polygon class="cls-15" points="664.92 264.91 660.14 264.51 665.67 198.58 668.56 194.37 670.45 198.99 664.92 264.91"/><polygon class="cls-14" points="658.28 268.28 653.57 269.2 640.93 204.26 642.56 199.41 645.63 203.34 658.28 268.28"/><polygon class="cls-4" points="668.86 283.39 648.37 283.39 641.65 229.14 675.57 229.14 668.86 283.39"/><polygon class="cls-5" points="676.58 283.39 656.09 283.39 653.07 229.14 683.3 229.14 676.58 283.39"/><path class="cls-34" d="M173.12,326.56v26.8H89.93a13.4,13.4,0,1,1,0-26.8Z"/><path class="cls-35" d="M141.78,344.47v8.89H89.93a13.43,13.43,0,0,1-12.63-8.89Z"/><path class="cls-3" d="M204.57,326.56v26.81h-83.2a13.41,13.41,0,1,1,0-26.81Z"/><path class="cls-10" d="M204.57,331.16v17.18H125a8.59,8.59,0,1,1,0-17.18Z"/><path class="cls-5" d="M174.93,273.29V300.1H91.74a13.41,13.41,0,1,1,0-26.81Z"/><path class="cls-36" d="M143.32,282.24v-8.9H91.48a13.42,13.42,0,0,0-12.63,8.9Z"/><path class="cls-12" d="M204.57,273.29V300.1h-83.2a13.41,13.41,0,1,1,0-26.81Z"/><path class="cls-10" d="M204.57,277.89v17.18H125a8.59,8.59,0,1,1,0-17.18Z"/><path class="cls-37" d="M179.77,300.25v26.81H96.57a13.41,13.41,0,0,1-11.82-19.7,13.63,13.63,0,0,1,2.35-3.19,13.42,13.42,0,0,1,9.47-3.92Z"/><path class="cls-38" d="M166.9,300.25v7.11H84.75a13.63,13.63,0,0,1,2.35-3.19,13.42,13.42,0,0,1,9.47-3.92Z"/><path class="cls-38" d="M166.9,327.07V320H84.75a13.63,13.63,0,0,0,2.35,3.19,13.42,13.42,0,0,0,9.47,3.91Z"/><path class="cls-39" d="M220.9,300.25v26.81H137.7a13.41,13.41,0,1,1,0-26.81Z"/><path class="cls-10" d="M220.9,304.85V322H141.32a8.59,8.59,0,1,1,0-17.18Z"/><path class="cls-40" d="M93.09,282.6C82,297.75,59.63,300.27,59.63,300.27s-4.28-22.06,6.85-37.22,33.46-17.67,33.46-17.67S104.22,267.44,93.09,282.6Z"/><path class="cls-41" d="M46.35,273.53C56.56,283.59,56,300.7,56,300.7s-17.1.8-27.3-9.25-9.65-27.17-9.65-27.17S36.15,263.48,46.35,273.53Z"/><path class="cls-42" d="M71.64,265.92C73.71,284.61,59,301.59,59,301.59s-18.09-13.34-20.16-32S51.48,233.9,51.48,233.9,69.57,247.23,71.64,265.92Z"/><polygon class="cls-15" points="70.26 353.22 31.53 353.22 18.83 296.71 82.96 296.71 70.26 353.22"/><polygon class="cls-43" points="84.86 353.22 46.13 353.22 40.42 296.71 97.56 296.71 84.86 353.22"/><path class="cls-44" d="M239.8,283.22H727.58a0,0,0,0,1,0,0v20.95a10.14,10.14,0,0,1-10.14,10.14H249.94a10.14,10.14,0,0,1-10.14-10.14V283.22A0,0,0,0,1,239.8,283.22Z" transform="translate(967.39 597.53) rotate(180)"/></g></g></svg>