<svg xmlns="http://www.w3.org/2000/svg" viewBox="0 0 391.34 381.82"><defs><style>.cls-1{fill:#f9b233;}.cls-2{fill:#575756;}.cls-3{fill:#373636;}.cls-4{fill:#d79b2d;}.cls-5{fill:none;stroke:#fff;stroke-miterlimit:10;stroke-width:0.88px;}.cls-6{fill:#ffd631;}</style></defs><g id="Layer_2" data-name="Layer 2"><g id="Capa_1" data-name="Capa 1"><path class="cls-1" d="M58.06,317.34a2.17,2.17,0,0,1,2.17-2.17h0a2.17,2.17,0,0,1,2.17,2.17v10a2.17,2.17,0,0,1-2.17,2.17h0a2.17,2.17,0,0,1-2.17-2.17Z"/><path class="cls-1" d="M108.26,268.64a2.17,2.17,0,0,1-2.16-2.17h0a2.17,2.17,0,0,1,2.16-2.17h10a2.16,2.16,0,0,1,2.16,2.17h0a2.17,2.17,0,0,1-2.16,2.17Z"/><path class="cls-1" d="M103.89,292.09a2.17,2.17,0,0,1-.63-3h0a2.17,2.17,0,0,1,3-.63l8.4,5.47a2.17,2.17,0,0,1,.63,3h0a2.17,2.17,0,0,1-3,.64Z"/><path class="cls-1" d="M17,292.09a2.16,2.16,0,0,0,.63-3h0a2.17,2.17,0,0,0-3-.63l-8.4,5.47a2.18,2.18,0,0,0-.63,3h0a2.17,2.17,0,0,0,3,.64Z"/><path class="cls-1" d="M82.89,313.64a2.17,2.17,0,0,1,0-3.07h0a2.15,2.15,0,0,1,3.06,0L93,317.66a2.15,2.15,0,0,1,0,3.06h0a2.17,2.17,0,0,1-3.07,0Z"/><path class="cls-1" d="M34.62,310.57a2.17,2.17,0,0,1,3.07,0h0a2.17,2.17,0,0,1,0,3.07l-7.09,7.08a2.15,2.15,0,0,1-3.06,0h0a2.15,2.15,0,0,1,0-3.06Z"/><path class="cls-1" d="M2.17,268.64A2.17,2.17,0,0,1,0,266.47H0a2.17,2.17,0,0,1,2.17-2.17h10a2.17,2.17,0,0,1,2.17,2.17h0a2.17,2.17,0,0,1-2.17,2.17Z"/><polygon class="cls-2" points="74.14 211.08 72.63 196.39 45.95 198.41 44.62 213.08 74.14 211.08"/><path class="cls-3" d="M43.24,210.9a1.26,1.26,0,0,1,1.17-1.35l29.66-2a1.26,1.26,0,0,1,1.34,1.18h0a1.26,1.26,0,0,1-1.17,1.34l-29.65,2a1.26,1.26,0,0,1-1.35-1.17Z"/><path class="cls-1" d="M59.36,311A42.09,42.09,0,0,0,79,231.69a40.69,40.69,0,0,1-4.84-20.61l-29.52,2h0a40.24,40.24,0,0,1-4.84,18.61A42.09,42.09,0,0,0,59.36,311Z"/><path class="cls-3" d="M43.24,207.75a1.26,1.26,0,0,1,1.17-1.35l29.66-2a1.26,1.26,0,0,1,1.34,1.18h0a1.26,1.26,0,0,1-1.17,1.35l-29.65,2a1.27,1.27,0,0,1-1.35-1.18Z"/><path class="cls-3" d="M43.24,204.46a1.26,1.26,0,0,1,1.17-1.34l29.66-2a1.26,1.26,0,0,1,1.34,1.17h0a1.26,1.26,0,0,1-1.17,1.35l-29.65,2a1.27,1.27,0,0,1-1.35-1.18Z"/><path class="cls-3" d="M43.24,201.18a1.26,1.26,0,0,1,1.17-1.35l29.66-2A1.26,1.26,0,0,1,75.41,199h0a1.26,1.26,0,0,1-1.17,1.34l-29.65,2a1.26,1.26,0,0,1-1.35-1.17Z"/><path class="cls-3" d="M46,198.41l26.68-2-4.81-7.58H66.24a6.32,6.32,0,0,0-12.06,0H52.4Z"/><path class="cls-4" d="M59.36,311a42.35,42.35,0,0,0,9-1,30.89,30.89,0,0,1-6.09-.9,32.32,32.32,0,0,1-20.84-17.64c-8.08-17.09-4.33-42,12.66-52.43,8.59-5.29,19.25-6.51,29.45-4.6a42.52,42.52,0,0,0-4.56-2.8,40.69,40.69,0,0,1-4.84-20.61l-29.52,2h0a40.24,40.24,0,0,1-4.84,18.61A42.09,42.09,0,0,0,59.36,311Z"/><path class="cls-5" d="M66.81,211.88l4.27,39.17c.35,3.06.92,12.52,5.55,12.57,4.35.05,4.61-6.06.5-7.28-1.6-.47-4.07,1-5.13.66-2-.72-4.6,1.41-5.22,3.49-.81,2.74,1.79,4.29,2.51,1.07,1.29-5.76-8.6-5-7.34-.13.23.9,1.22,2.15,2.09,1.58,1.3-.87.87-3.55,0-4.47a4,4,0,0,0-4.68-.5c-1.4.8-2.88,3.53-1,4.71,2,1.3,3.34-4.57-.53-5-1.73-.2-6.46,1.26-4.64,3.86s2.68-1.17,1.55-2.63-3.46-1.73-5-1.18a3.16,3.16,0,0,0-1.92,3.93,1.71,1.71,0,0,0,2.9.5c1.09-1.3-.11-3.42-1.24-4.29a5.29,5.29,0,0,0-2.51-1.06c-2.11-.21-4.06-.53-6,.63-4.86,2.89-1.52,8.52,2.67,4.83,5.36-4.72,4.65-15.33,5.61-21.8l2.47-28.12"/><path class="cls-6" d="M70.77,211.31a40.7,40.7,0,0,0,4.84,20.38A42.09,42.09,0,0,1,57.68,311c.56,0,1.12,0,1.68,0A42.09,42.09,0,0,0,79,231.69a40.69,40.69,0,0,1-4.84-20.61Z"/><rect class="cls-3" x="57.99" width="2.77" height="189.84"/><path class="cls-1" d="M151.74,230.79a2.17,2.17,0,0,1,2.16-2.17h0a2.17,2.17,0,0,1,2.17,2.17v10A2.17,2.17,0,0,1,153.9,243h0a2.17,2.17,0,0,1-2.16-2.17Z"/><path class="cls-1" d="M201.94,182.08a2.17,2.17,0,0,1-2.17-2.16h0a2.17,2.17,0,0,1,2.17-2.17h10a2.17,2.17,0,0,1,2.17,2.17h0a2.17,2.17,0,0,1-2.17,2.16Z"/><path class="cls-1" d="M197.57,205.54a2.15,2.15,0,0,1-.63-3h0a2.17,2.17,0,0,1,3-.63l8.39,5.47a2.17,2.17,0,0,1,.64,3h0a2.17,2.17,0,0,1-3,.64Z"/><path class="cls-1" d="M110.66,205.54a2.17,2.17,0,0,0,.63-3h0a2.17,2.17,0,0,0-3-.63l-8.4,5.47a2.17,2.17,0,0,0-.63,3h0a2.17,2.17,0,0,0,3,.64Z"/><path class="cls-1" d="M176.56,227.09a2.19,2.19,0,0,1,0-3.07h0a2.17,2.17,0,0,1,3.07,0l7.09,7.09a2.17,2.17,0,0,1,0,3.06h0a2.17,2.17,0,0,1-3.07,0Z"/><path class="cls-1" d="M128.3,224a2.17,2.17,0,0,1,3.07,0h0a2.19,2.19,0,0,1,0,3.07l-7.09,7.08a2.17,2.17,0,0,1-3.07,0h0a2.17,2.17,0,0,1,0-3.06Z"/><path class="cls-1" d="M95.85,182.08a2.17,2.17,0,0,1-2.17-2.16h0a2.17,2.17,0,0,1,2.17-2.17h10a2.17,2.17,0,0,1,2.17,2.17h0a2.17,2.17,0,0,1-2.17,2.16Z"/><polygon class="cls-2" points="167.81 124.53 166.3 109.84 139.63 111.86 138.3 126.53 167.81 124.53"/><path class="cls-3" d="M136.91,124.34a1.26,1.26,0,0,1,1.18-1.34l29.65-2a1.26,1.26,0,0,1,1.35,1.17h0a1.26,1.26,0,0,1-1.18,1.35l-29.65,2a1.27,1.27,0,0,1-1.35-1.18Z"/><path class="cls-1" d="M153,224.48a42.1,42.1,0,0,0,19.62-79.34,40.68,40.68,0,0,1-4.85-20.61l-29.51,2h-.05a40.38,40.38,0,0,1-4.83,18.61A42.09,42.09,0,0,0,153,224.48Z"/><path class="cls-3" d="M136.91,121.2a1.27,1.27,0,0,1,1.18-1.35l29.65-2a1.27,1.27,0,0,1,1.35,1.18h0a1.27,1.27,0,0,1-1.18,1.35l-29.65,2a1.26,1.26,0,0,1-1.35-1.17Z"/><path class="cls-3" d="M136.91,117.91a1.28,1.28,0,0,1,1.18-1.35l29.65-2a1.26,1.26,0,0,1,1.35,1.17h0a1.27,1.27,0,0,1-1.18,1.35l-29.65,2a1.27,1.27,0,0,1-1.35-1.18Z"/><path class="cls-3" d="M136.91,114.62a1.26,1.26,0,0,1,1.18-1.34l29.65-2a1.27,1.27,0,0,1,1.35,1.18h0a1.26,1.26,0,0,1-1.18,1.34l-29.65,2a1.27,1.27,0,0,1-1.35-1.18Z"/><path class="cls-3" d="M139.63,111.86l26.67-2-4.8-7.59h-1.59a6.32,6.32,0,0,0-12.06,0h-1.77Z"/><path class="cls-4" d="M153,224.48a42.35,42.35,0,0,0,9-1,30.17,30.17,0,0,1-6.1-.91A32.29,32.29,0,0,1,135.1,205c-8.08-17.08-4.33-42,12.67-52.42,8.59-5.29,19.25-6.51,29.44-4.6a41.42,41.42,0,0,0-4.55-2.8,40.68,40.68,0,0,1-4.85-20.61l-29.51,2h-.05a40.38,40.38,0,0,1-4.83,18.61A42.09,42.09,0,0,0,153,224.48Z"/><path class="cls-5" d="M160.49,125.33l4.26,39.17c.36,3.06.92,12.52,5.56,12.57,4.35.05,4.6-6.06.5-7.28-1.61-.47-4.07,1-5.14.66-2-.72-4.6,1.41-5.21,3.49-.82,2.74,1.79,4.29,2.5,1.07,1.29-5.76-8.59-5-7.33-.13.23.89,1.21,2.15,2.09,1.58,1.3-.87.86-3.55,0-4.47a4,4,0,0,0-4.68-.5c-1.41.8-2.89,3.53-1,4.71,2,1.3,3.33-4.57-.53-5-1.73-.2-6.46,1.26-4.65,3.86s2.69-1.17,1.56-2.63-3.47-1.73-5-1.18a3.17,3.17,0,0,0-1.93,3.93,1.72,1.72,0,0,0,2.91.5c1.09-1.3-.11-3.42-1.25-4.29a5.22,5.22,0,0,0-2.5-1.06c-2.11-.21-4.06-.54-6,.63-4.86,2.89-1.52,8.52,2.68,4.83,5.35-4.72,4.64-15.33,5.6-21.81l2.48-28.11"/><path class="cls-6" d="M164.44,124.76a40.79,40.79,0,0,0,4.85,20.38,42.09,42.09,0,0,1-17.94,79.3c.56,0,1.12,0,1.69,0a42.1,42.1,0,0,0,19.62-79.34,40.68,40.68,0,0,1-4.85-20.61Z"/><rect class="cls-3" x="151.67" width="2.77" height="103.29"/><path class="cls-1" d="M235.27,369.63a2.17,2.17,0,0,1,2.17-2.17h0a2.17,2.17,0,0,1,2.17,2.17v10a2.17,2.17,0,0,1-2.17,2.17h0a2.17,2.17,0,0,1-2.17-2.17Z"/><path class="cls-1" d="M285.48,320.93a2.17,2.17,0,0,1-2.17-2.17h0a2.17,2.17,0,0,1,2.17-2.17h10a2.17,2.17,0,0,1,2.17,2.17h0a2.17,2.17,0,0,1-2.17,2.17Z"/><path class="cls-1" d="M281.11,344.39a2.17,2.17,0,0,1-.64-3h0a2.18,2.18,0,0,1,3-.64l8.4,5.48a2.18,2.18,0,0,1,.64,3h0a2.18,2.18,0,0,1-3,.63Z"/><path class="cls-1" d="M194.19,344.39a2.17,2.17,0,0,0,.64-3h0a2.18,2.18,0,0,0-3-.64l-8.4,5.48a2.16,2.16,0,0,0-.63,3h0a2.17,2.17,0,0,0,3,.63Z"/><path class="cls-1" d="M260.1,365.93a2.17,2.17,0,0,1,0-3.07h0a2.19,2.19,0,0,1,3.07,0l7.08,7.09a2.17,2.17,0,0,1,0,3.07h0a2.16,2.16,0,0,1-3.06,0Z"/><path class="cls-1" d="M211.84,362.86a2.17,2.17,0,0,1,3.06,0h0a2.17,2.17,0,0,1,0,3.07L207.82,373a2.17,2.17,0,0,1-3.07,0h0a2.17,2.17,0,0,1,0-3.07Z"/><path class="cls-1" d="M179.38,320.93a2.17,2.17,0,0,1-2.17-2.17h0a2.17,2.17,0,0,1,2.17-2.17h10a2.17,2.17,0,0,1,2.17,2.17h0a2.17,2.17,0,0,1-2.17,2.17Z"/><polygon class="cls-2" points="251.35 263.38 249.84 248.68 223.17 250.71 221.83 265.38 251.35 263.38"/><path class="cls-3" d="M220.45,263.19a1.27,1.27,0,0,1,1.18-1.35l29.65-2a1.27,1.27,0,0,1,1.35,1.18h0a1.27,1.27,0,0,1-1.18,1.35l-29.65,2a1.26,1.26,0,0,1-1.35-1.17Z"/><path class="cls-1" d="M236.57,363.33A42.09,42.09,0,0,0,256.19,284a40.85,40.85,0,0,1-4.84-20.61l-29.52,2h0A40.33,40.33,0,0,1,217,284a42.1,42.1,0,0,0,19.62,79.34Z"/><path class="cls-3" d="M220.45,260a1.26,1.26,0,0,1,1.18-1.34l29.65-2a1.26,1.26,0,0,1,1.35,1.17h0a1.27,1.27,0,0,1-1.18,1.35l-29.65,2a1.27,1.27,0,0,1-1.35-1.18Z"/><path class="cls-3" d="M220.45,256.76a1.27,1.27,0,0,1,1.18-1.35l29.65-2a1.27,1.27,0,0,1,1.35,1.18h0a1.26,1.26,0,0,1-1.18,1.34l-29.65,2a1.26,1.26,0,0,1-1.35-1.17Z"/><path class="cls-3" d="M220.45,253.47a1.27,1.27,0,0,1,1.18-1.35l29.65-2a1.27,1.27,0,0,1,1.35,1.18h0a1.28,1.28,0,0,1-1.18,1.35l-29.65,2a1.28,1.28,0,0,1-1.35-1.18Z"/><path class="cls-3" d="M223.17,250.71l26.67-2L245,241.1h-1.59a6.32,6.32,0,0,0-12.06,0h-1.78Z"/><path class="cls-4" d="M236.57,363.33a41.65,41.65,0,0,0,9-1,29.47,29.47,0,0,1-6.09-.9,32.3,32.3,0,0,1-20.84-17.64c-8.08-17.08-4.33-42,12.67-52.43,8.59-5.28,19.25-6.51,29.44-4.6a40.56,40.56,0,0,0-4.56-2.79,40.85,40.85,0,0,1-4.84-20.61l-29.52,2h0A40.33,40.33,0,0,1,217,284a42.1,42.1,0,0,0,19.62,79.34Z"/><path class="cls-5" d="M244,264.17l4.26,39.18c.36,3.06.92,12.51,5.55,12.57,4.36.05,4.61-6.07.5-7.28-1.6-.48-4.06,1-5.13.65-2-.71-4.6,1.42-5.22,3.5-.81,2.74,1.79,4.28,2.51,1.07,1.29-5.77-8.59-5-7.34-.13.23.89,1.22,2.15,2.09,1.57,1.3-.86.87-3.55,0-4.47a4,4,0,0,0-4.68-.49c-1.41.8-2.89,3.53-1,4.71,2.05,1.3,3.33-4.57-.53-5-1.74-.19-6.46,1.27-4.65,3.87s2.68-1.18,1.56-2.64a4.92,4.92,0,0,0-5-1.18A3.17,3.17,0,0,0,225,314a1.72,1.72,0,0,0,2.91.5c1.09-1.3-.12-3.42-1.25-4.29a5.24,5.24,0,0,0-2.5-1.05c-2.11-.22-4.06-.54-6,.62-4.86,2.9-1.52,8.52,2.67,4.83,5.36-4.72,4.65-15.33,5.61-21.8l2.48-28.12"/><path class="cls-6" d="M248,263.6A40.7,40.7,0,0,0,252.83,284a42.09,42.09,0,0,1-17.94,79.3c.56,0,1.12,0,1.68,0A42.09,42.09,0,0,0,256.19,284a40.85,40.85,0,0,1-4.84-20.61Z"/><rect class="cls-3" x="235.21" width="2.77" height="242.13"/><path class="cls-1" d="M329,272.69a2.17,2.17,0,0,1,2.17-2.17h0a2.17,2.17,0,0,1,2.17,2.17v10a2.17,2.17,0,0,1-2.17,2.17h0a2.17,2.17,0,0,1-2.17-2.17Z"/><path class="cls-1" d="M379.15,224a2.17,2.17,0,0,1-2.17-2.17h0a2.17,2.17,0,0,1,2.17-2.17h10a2.17,2.17,0,0,1,2.16,2.17h0a2.17,2.17,0,0,1-2.16,2.17Z"/><path class="cls-1" d="M374.78,247.45a2.18,2.18,0,0,1-.63-3h0a2.17,2.17,0,0,1,3-.64l8.4,5.48a2.17,2.17,0,0,1,.63,3h0a2.17,2.17,0,0,1-3,.63Z"/><path class="cls-1" d="M287.87,247.45a2.17,2.17,0,0,0,.63-3h0a2.17,2.17,0,0,0-3-.64l-8.4,5.48a2.17,2.17,0,0,0-.63,3h0a2.18,2.18,0,0,0,3,.63Z"/><path class="cls-1" d="M353.78,269a2.17,2.17,0,0,1,0-3.07h0a2.17,2.17,0,0,1,3.06,0l7.09,7.09a2.17,2.17,0,0,1,0,3.07h0a2.19,2.19,0,0,1-3.07,0Z"/><path class="cls-1" d="M305.51,265.92a2.18,2.18,0,0,1,3.07,0h0a2.17,2.17,0,0,1,0,3.07l-7.09,7.09a2.17,2.17,0,0,1-3.06,0h0a2.17,2.17,0,0,1,0-3.07Z"/><path class="cls-1" d="M273.06,224a2.17,2.17,0,0,1-2.17-2.17h0a2.17,2.17,0,0,1,2.17-2.17h10a2.17,2.17,0,0,1,2.17,2.17h0a2.17,2.17,0,0,1-2.17,2.17Z"/><polygon class="cls-2" points="345.03 166.43 343.52 151.74 316.84 153.76 315.51 168.43 345.03 166.43"/><path class="cls-3" d="M314.13,166.25a1.26,1.26,0,0,1,1.17-1.35l29.66-2a1.26,1.26,0,0,1,1.34,1.18h0a1.26,1.26,0,0,1-1.17,1.34l-29.65,2a1.26,1.26,0,0,1-1.35-1.17Z"/><path class="cls-1" d="M330.25,266.39a42.09,42.09,0,0,0,19.62-79.34A40.76,40.76,0,0,1,345,166.43l-29.52,2h0a40.33,40.33,0,0,1-4.84,18.62,42.09,42.09,0,0,0,19.62,79.34Z"/><path class="cls-3" d="M314.13,163.1a1.26,1.26,0,0,1,1.17-1.35l29.66-2a1.26,1.26,0,0,1,1.34,1.17h0a1.26,1.26,0,0,1-1.17,1.35l-29.65,2a1.27,1.27,0,0,1-1.35-1.18Z"/><path class="cls-3" d="M314.13,159.81a1.26,1.26,0,0,1,1.17-1.34l29.66-2a1.26,1.26,0,0,1,1.34,1.18h0a1.26,1.26,0,0,1-1.17,1.34l-29.65,2a1.26,1.26,0,0,1-1.35-1.18Z"/><path class="cls-3" d="M314.13,156.53a1.26,1.26,0,0,1,1.17-1.35l29.66-2a1.26,1.26,0,0,1,1.34,1.18h0a1.26,1.26,0,0,1-1.17,1.34l-29.65,2a1.26,1.26,0,0,1-1.35-1.17Z"/><path class="cls-3" d="M316.84,153.76l26.68-2-4.81-7.58h-1.58a6.32,6.32,0,0,0-12.06,0h-1.78Z"/><path class="cls-4" d="M330.25,266.39a41.71,41.71,0,0,0,9-1,29.47,29.47,0,0,1-6.09-.9,32.3,32.3,0,0,1-20.84-17.64c-8.08-17.09-4.34-42,12.66-52.43,8.59-5.29,19.25-6.51,29.45-4.6a42.44,42.44,0,0,0-4.56-2.79A40.76,40.76,0,0,1,345,166.43l-29.52,2h0a40.33,40.33,0,0,1-4.84,18.62,42.09,42.09,0,0,0,19.62,79.34Z"/><path class="cls-5" d="M337.7,167.23,342,206.4c.35,3.07.92,12.52,5.55,12.58,4.35,0,4.6-6.07.5-7.29-1.61-.47-4.07,1-5.13.66-2-.71-4.6,1.42-5.22,3.49-.81,2.75,1.79,4.29,2.51,1.08,1.29-5.77-8.6-5-7.34-.13.23.89,1.22,2.14,2.09,1.57,1.3-.86.87-3.55,0-4.47a4,4,0,0,0-4.68-.49c-1.4.8-2.88,3.53-1,4.7,2.05,1.3,3.34-4.56-.53-5-1.73-.2-6.46,1.27-4.65,3.87s2.69-1.18,1.56-2.64-3.47-1.73-5-1.18a3.16,3.16,0,0,0-1.92,3.93,1.71,1.71,0,0,0,2.9.5c1.09-1.3-.11-3.42-1.24-4.29a5.4,5.4,0,0,0-2.51-1.06c-2.11-.21-4.06-.53-6,.63-4.86,2.9-1.52,8.52,2.67,4.83,5.36-4.72,4.65-15.33,5.61-21.8l2.47-28.12"/><path class="cls-6" d="M341.66,166.66a40.74,40.74,0,0,0,4.84,20.39,42.08,42.08,0,0,1-17.93,79.29c.56,0,1.12.05,1.68.05a42.09,42.09,0,0,0,19.62-79.34A40.76,40.76,0,0,1,345,166.43Z"/><rect class="cls-3" x="328.88" width="2.77" height="145.19"/></g></g></svg>